<?xml version="1.0" encoding="utf-8"?>
<!-- Generator: Adobe Illustrator 19.0.1, SVG Export Plug-In . SVG Version: 6.00 Build 0)  -->
<!DOCTYPE svg PUBLIC "-//W3C//DTD SVG 1.1//EN" "http://www.w3.org/Graphics/SVG/1.1/DTD/svg11.dtd">
<svg version="1.1" id="Layer_1" xmlns="http://www.w3.org/2000/svg" xmlns:xlink="http://www.w3.org/1999/xlink" x="0px" y="0px"
	 viewBox="-297 212 44 58" style="enable-background:new -297 212 44 58;" xml:space="preserve">
<style type="text/css">
	.st0{fill:#FFFFFF;}
	.st1{fill:#F6584C;}
</style>
<g>
	<path class="st0" d="M-275.1,211.8c-11.6,0-22,9.8-22,22c0,20,22,36,22,36s22-16,22-36C-253.1,221.6-263.5,211.8-275.1,211.8z"/>
	<path class="st1" d="M-275.1,216.8c9.1,0,17,7.9,17,17c0,13.1-11.5,24.7-17,29.5c-5.5-4.8-17-16.4-17-29.5
		C-292.1,224.7-284.2,216.8-275.1,216.8 M-275.1,211.8c-11.6,0-22,9.8-22,22c0,20,22,36,22,36s22-16,22-36
		C-253.1,221.6-263.5,211.8-275.1,211.8L-275.1,211.8z"/>
</g>
<circle class="st1" cx="-275.1" cy="233.8" r="7"/>
</svg>
