<?xml version="1.0" encoding="utf-8"?>
<!-- Generator: Adobe Illustrator 19.0.1, SVG Export Plug-In . SVG Version: 6.00 Build 0)  -->
<!DOCTYPE svg PUBLIC "-//W3C//DTD SVG 1.1//EN" "http://www.w3.org/Graphics/SVG/1.1/DTD/svg11.dtd">
<svg version="1.1" id="Layer_1" xmlns="http://www.w3.org/2000/svg" xmlns:xlink="http://www.w3.org/1999/xlink" x="0px" y="0px"
	 viewBox="0 0 44 58" enable-background="new 0 0 44 58" xml:space="preserve">
<g>
	<path fill="#FFFFFF" d="M21.9-0.2c-11.6,0-22,9.8-22,22c0,20,22,36,22,36s22-16,22-36C43.9,9.6,33.5-0.2,21.9-0.2z"/>
	<path fill="#C1A02F" d="M21.9,4.8c9.1,0,17,7.9,17,17c0,13.1-11.5,24.7-17,29.5c-5.5-4.8-17-16.4-17-29.5
		C4.9,12.7,12.8,4.8,21.9,4.8 M21.9-0.2c-11.6,0-22,9.8-22,22c0,20,22,36,22,36s22-16,22-36C43.9,9.6,33.5-0.2,21.9-0.2L21.9-0.2z"
		/>
</g>
<circle fill="#C1A02F" cx="21.9" cy="21.8" r="7"/>
</svg>
